<?xml version="1.0" encoding="UTF-8" standalone="no"?>
<!-- Created with Inkscape (http://www.inkscape.org/) -->

<svg
   width="64px"
   height="64px"
   id="svg2984"
   version="1.1"
   inkscape:version="1.4.2 (f4327f4, 2025-05-13)"
   sodipodi:docname="wn.svg"
   xmlns:inkscape="http://www.inkscape.org/namespaces/inkscape"
   xmlns:sodipodi="http://sodipodi.sourceforge.net/DTD/sodipodi-0.dtd"
   xmlns="http://www.w3.org/2000/svg"
   xmlns:svg="http://www.w3.org/2000/svg"
   xmlns:rdf="http://www.w3.org/1999/02/22-rdf-syntax-ns#"
   xmlns:cc="http://creativecommons.org/ns#"
   xmlns:dc="http://purl.org/dc/elements/1.1/">
  <defs
     id="defs2986" />
  <sodipodi:namedview
     id="base"
     pagecolor="#ffffff"
     bordercolor="#666666"
     borderopacity="1.0"
     inkscape:pageopacity="0.0"
     inkscape:pageshadow="2"
     inkscape:zoom="3.8890873"
     inkscape:cx="13.627876"
     inkscape:cy="50.654558"
     inkscape:current-layer="layer1"
     showgrid="false"
     inkscape:document-units="px"
     inkscape:grid-bbox="true"
     showguides="false"
     inkscape:window-width="933"
     inkscape:window-height="678"
     inkscape:window-x="172"
     inkscape:window-y="49"
     inkscape:window-maximized="0"
     inkscape:showpageshadow="2"
     inkscape:pagecheckerboard="0"
     inkscape:deskcolor="#d1d1d1">
    <inkscape:grid
       type="xygrid"
       id="grid2998"
       empspacing="1"
       visible="true"
       enabled="true"
       snapvisiblegridlinesonly="true"
       originx="0"
       originy="0"
       spacingy="1"
       spacingx="1"
       units="px" />
  </sodipodi:namedview>
  <metadata
     id="metadata2989">
    <rdf:RDF>
      <cc:Work
         rdf:about="">
        <dc:format>image/svg+xml</dc:format>
        <dc:type
           rdf:resource="http://purl.org/dc/dcmitype/StillImage" />
        <dc:title />
      </cc:Work>
    </rdf:RDF>
  </metadata>
  <g
     id="layer1"
     inkscape:label="Layer 1"
     inkscape:groupmode="layer">
    <path
       style="fill:#ffffff;stroke:#000000;stroke-width:1.9;stroke-linecap:butt;stroke-linejoin:miter;stroke-miterlimit:4;stroke-dasharray:none;stroke-opacity:1"
       d="m 33.925592,33.871679 c 0.784799,3.220229 0.73904,6.503743 -3.8,7.6 -8.806895,3.140955 -9.5,5.7 -9.5,13.3 h 34.2 c -4.850017,-15.004617 0.634198,-37.472846 -19,-41.8 0,0 -0.758242,-5.8917577 -1.9,-4.7499998 -0.95,0.95 -0.95,4.7499998 -0.95,4.7499998 -0.988853,-0.254776 -1.58122,-0.679477 -4.75,0 0,0 -1.9,-5.2161762 -1.9,-3.7999998 0,1.8999998 -0.95,3.7999998 -0.95,3.7999998 -6.507139,8.417397 -4.478002,-0.423721 -15.2,23.75 -1.5803401,3.563022 2.401589,5.643301 4.75,4.75 l 4.75,-1.9 c 0,0 -2.120247,3.315267 -0.95,3.8 1.65498,0.685515 4.75,-3.8 4.75,-3.8 4.922316,-4.539109 8.449432,-4.636856 10.45,-5.7 5.849875,0.949388 5.962897,-6.941497 3.8,-9.5"
       id="path3085"
       inkscape:connector-curvature="0"
       sodipodi:nodetypes="cccccsccscsccsccc" />
    <path
       style="fill:#000000;stroke:#000000;stroke-width:0.95px;stroke-linecap:butt;stroke-linejoin:miter;stroke-opacity:1"
       d="m 21.230138,26.401225 c -0.116544,-0.467967 0.195181,-1.066388 1.165909,-2.051136 0.970727,-0.984749 1.586968,-0.824718 1.708487,-0.800136 0.455596,0.09216 0.545104,1.069189 -0.520986,1.966045 -0.872763,0.734217 -2.236866,1.353194 -2.35341,0.885227 z"
       id="path3118"
       inkscape:connector-curvature="0"
       sodipodi:nodetypes="zzssz" />
    <path
       style="fill:#000000;stroke:#000000;stroke-width:0.95px;stroke-linecap:butt;stroke-linejoin:miter;stroke-opacity:1"
       d="m 12.14461,37.70487 c -0.13017,-0.299072 -0.227877,-1.108931 0.116711,-1.128043 0.372812,-0.02068 0.713363,0.458723 0.843844,0.898324 0.151696,0.511072 -0.143453,0.789415 -0.382127,0.831832 -0.238673,0.04242 -0.43393,-0.270123 -0.578428,-0.602113 z"
       id="path3120"
       inkscape:connector-curvature="0"
       sodipodi:nodetypes="ssszs" />
  </g>
</svg>
